<?xml version="1.0" standalone="no"?>
<!DOCTYPE svg PUBLIC "-//W3C//DTD SVG 20010904//EN"
 "http://www.w3.org/TR/2001/REC-SVG-20010904/DTD/svg10.dtd">
<svg version="1.0" xmlns="http://www.w3.org/2000/svg"
 width="512.000000pt" height="512.000000pt" viewBox="0 0 512.000000 512.000000"
 preserveAspectRatio="xMidYMid meet">
<metadata>
Created by potrace 1.14, written by Peter Selinger 2001-2017
</metadata>
<g transform="translate(0.000000,512.000000) scale(0.100000,-0.100000)"
fill="#000000" stroke="none">
<path d="M825 5014 c-23 -24 -24 -33 -20 -108 9 -191 82 -365 214 -515 17 -20
20 -32 16 -80 -26 -276 -138 -515 -331 -706 -68 -67 -266 -209 -535 -383 -75
-47 -97 -83 -82 -129 12 -36 46 -53 106 -53 l47 0 0 -124 c0 -69 4 -136 9
-149 5 -13 23 -30 40 -37 l31 -12 0 -918 0 -918 -30 -12 c-17 -7 -35 -21 -40
-31 -6 -10 -10 -76 -10 -148 l0 -131 -49 0 c-104 0 -111 -16 -111 -237 0 -92
3 -178 6 -191 15 -55 -140 -52 2474 -52 2625 0 2461 -4 2476 53 3 13 4 105 2
205 -4 213 -4 213 -98 220 l-60 4 0 124 c0 67 -4 134 -9 147 -5 13 -23 30 -40
37 l-31 12 0 918 0 918 30 12 c17 7 35 21 40 31 6 10 10 76 10 148 l0 131 43
0 c60 0 84 9 102 37 12 17 15 36 10 59 -6 32 -24 47 -248 196 -133 88 -267
181 -297 206 -232 190 -376 465 -404 768 -5 58 -4 63 27 100 131 155 206 348
203 528 -1 73 -13 93 -62 102 -30 5 -43 1 -92 -34 -77 -53 -200 -114 -297
-145 -178 -58 -144 -56 -1330 -54 -600 2 -1103 6 -1120 10 -201 50 -315 97
-446 183 -77 51 -110 55 -144 18z"/>
</g>
</svg>
